PathFileType	4	(X/Y/Z)	4_coords_data.trc
DataRate	CameraRate	NumFrames	NumMarkers	Units	OrigDataRate	OrigDataStartFrame	OrigNumFrames
30.0	30.0	7	21	m	30.0	19	47
Frame#	Time	THUMB_TIP	THUMB_IP	THUMB_MCP	THUMB_CMC	INDEX_TIP	INDEX_DIP	INDEX_PIP	INDEX_MCP	MIDDLE_TIP	MIDDLE_DIP	MIDDLE_PIP	MIDDLE_MCP	RING_TIP	RING_DIP	RING_PIP	RING_MCP	PINKY_TIP	PINKY_DIP	PINKY_PIP	PINKY_MCP	WRIST
X1	Y1	Z1	X2	Y2	Z2	X3	Y3	Z3	X4	Y4	Z4	X5	Y5	Z5	X6	Y6	Z6	X7	Y7	Z7	X8	Y8	Z8	X9	Y9	Z9	X10	Y10	Z10	X11	Y11	Z11	X12	Y12	Z12	X13	Y13	Z13	X14	Y14	Z14	X15	Y15	Z15	X16	Y16	Z16	X17	Y17	Z17	X18	Y18	Z18	X19	Y19	Z19	X20	Y20	Z20	X21	Y21	Z21
18	0.6	-0.05644620132446289	-0.10613099670410156	1.0284000244140625	-0.05162030029296875	-0.07843190002441407	1.03781005859375	-0.06062710189819336	-0.05881069946289062	1.062199951171875	-0.06294839859008788	-0.02060740089416504	1.076449951171875	-0.05628549957275391	-0.029238800048828124	1.052219970703125	-0.04033290100097656	-0.03001759910583496	1.04181005859375	-0.03434659957885742	-0.03644779968261719	1.0174400024414063	-0.07924150085449219	-0.03836130142211914	1.017010009765625	-0.04758890151977539	-0.014212400436401366	1.052	-0.03909799957275391	-0.011656299591064453	1.0436500244140625	-0.031004100799560546	-0.013072799682617188	1.0141599731445312	-0.07884320068359375	-0.012875200271606446	1.0099400024414062	-0.050533599853515625	0.001777269959449768	1.0541199951171876	-0.041179000854492186	0.006161379814147949	1.049760009765625	-0.027845699310302733	0.009694049835205078	1.02543994140625	-0.07301429748535156	0.012400799751281739	1.0124500122070312	-0.05574819946289063	0.019859500885009766	1.05375	-0.04121829986572265	0.02349530029296875	1.0456400146484375	-0.03508229827880859	0.03062660026550293	1.0261400146484374	-0.07095130157470703	0.03610480117797851	1.0184500122070312	-0.08749729919433594	0.007136909961700439	1.0939200439453125
19	0.6333333333333333	-0.05645560073852539	-0.10616600036621093	1.0283299560546875	-0.0516260986328125	-0.0784644012451172	1.037739990234375	-0.0606619987487793	-0.05888410186767578	1.0621600341796875	-0.0630281982421875	-0.020723400115966798	1.07643994140625	-0.05628820037841797	-0.029289300918579102	1.05222998046875	-0.04035449981689453	-0.03011370086669922	1.04175	-0.03438010025024414	-0.03654690170288086	1.0174199829101562	-0.07929570007324219	-0.03842409896850586	1.017010009765625	-0.04767689895629883	-0.01426609992980957	1.0521199951171876	-0.03910079956054688	-0.011704899787902833	1.04347998046875	-0.03098139953613281	-0.013184800148010253	1.0143300170898437	-0.07882579803466797	-0.012961600303649902	1.0098900146484375	-0.05043289947509766	0.001731209993362426	1.0539599609375	-0.04117879867553711	0.0060797700881958005	1.0497099609375	-0.027778799057006837	0.00955601978302002	1.025449951171875	-0.07300370025634766	0.01234309959411621	1.0123900146484375	-0.05586489868164062	0.019859699249267577	1.0541400146484374	-0.04115810012817383	0.023340400695800782	1.0456099853515626	-0.03510089874267578	0.030536800384521483	1.0260899658203124	-0.0709220962524414	0.03603290176391601	1.0184500122070312	-0.08766719818115234	0.007247019767761231	1.09381005859375
20	0.6666666666666666	-0.05648749923706055	-0.10627999877929688	1.028260009765625	-0.05167990112304687	-0.07858609771728516	1.03775	-0.06075260162353516	-0.05905270004272461	1.062239990234375	-0.06304840087890624	-0.020894699096679688	1.0764200439453124	-0.05628609848022461	-0.029404699325561525	1.05225	-0.04041469955444336	-0.030244800567626955	1.041699951171875	-0.03441659927368164	-0.03672869873046875	1.0173800048828125	-0.0793134994506836	-0.03858430099487305	1.0169500122070312	-0.04760699844360351	-0.014511199951171875	1.0517099609375	-0.0390447998046875	-0.011893199920654298	1.04352001953125	-0.031019699096679686	-0.013356800079345704	1.0142000122070312	-0.07884649658203124	-0.013103599548339845	1.0098400268554688	-0.05033459854125977	0.001532969951629638	1.0539100341796874	-0.04117530059814453	0.0059109702110290525	1.04972998046875	-0.027871000289916993	0.009432760238647461	1.0254300537109375	-0.0729927978515625	0.01217840003967285	1.0123499755859375	-0.05573469924926758	0.01947520065307617	1.053949951171875	-0.04107210159301758	0.023145200729370118	1.0456800537109374	-0.0350447998046875	0.03036370086669922	1.0261500244140624	-0.0709344024658203	0.035887599945068356	1.0184199829101563	-0.08784320068359375	0.0070264701843261715	1.0939000244140624
21	0.7	-0.05660160064697266	-0.10649600219726563	1.02827001953125	-0.05177959823608398	-0.0788052978515625	1.037739990234375	-0.060863800048828125	-0.059231800079345705	1.06231005859375	-0.06308560180664062	-0.021128900527954103	1.0764100341796874	-0.05628519821166992	-0.029678400039672852	1.052280029296875	-0.04045510101318359	-0.030535999298095702	1.0416600341796876	-0.03448360061645508	-0.037027099609375	1.017219970703125	-0.07936150360107422	-0.03878929901123047	1.0169600219726562	-0.04788309860229492	-0.014759900093078614	1.0520899658203124	-0.039102401733398434	-0.012157400131225586	1.043280029296875	-0.031046699523925782	-0.013608599662780762	1.0143300170898437	-0.07893869781494141	-0.013329500198364258	1.0098300170898438	-0.05001190185546875	0.0013884099721908569	1.05368994140625	-0.041215999603271485	0.005653739929199219	1.0495899658203125	-0.02787529945373535	0.00916316032409668	1.025219970703125	-0.07306739807128906	0.01197029972076416	1.0123200073242187	-0.055681999206542966	0.019375799179077148	1.0536199951171874	-0.0411067008972168	0.022916700363159178	1.045489990234375	-0.0350718994140625	0.03006529998779297	1.0258399658203126	-0.07097260284423829	0.0356890983581543	1.0183800048828124	-0.08781639862060547	0.006834420204162597	1.0938699951171875
22	0.7333333333333333	-0.056874401092529295	-0.10684500122070313	1.02843994140625	-0.05204840087890625	-0.07914080047607422	1.0378599853515624	-0.06099700164794922	-0.05952980041503906	1.0624300537109375	-0.06316989898681641	-0.0214414005279541	1.07652001953125	-0.056165699005126954	-0.030140100479125978	1.0516600341796876	-0.0403484001159668	-0.030847400665283204	1.0415699462890624	-0.034579700469970706	-0.03740859985351563	1.0172899780273437	-0.07948020172119141	-0.03918239974975586	1.0170999755859376	-0.047835899353027345	-0.01507229995727539	1.05206005859375	-0.03903730010986328	-0.012548700332641601	1.0433299560546876	-0.031195899963378907	-0.014056500434875488	1.0137999877929686	-0.07906580352783203	-0.013633799552917481	1.0099199829101562	-0.0500276985168457	0.000876480996608734	1.0535400390625	-0.04116189956665039	0.00529773998260498	1.0493299560546876	-0.027921199798583984	0.00878654956817627	1.024989990234375	-0.07311979675292969	0.011696499824523926	1.0123300170898437	-0.05591669845581055	0.019098400115966797	1.0538199462890625	-0.04108610153198242	0.022575099945068358	1.0453199462890626	-0.03509709930419922	0.029661800384521483	1.0256099853515626	-0.07098549652099609	0.03538750076293945	1.0183099975585939	-0.08779850006103515	0.0065099701881408695	1.094
23	0.7666666666666667	-0.05787770080566406	-0.10734600067138672	1.028719970703125	-0.05298139953613281	-0.07965460205078125	1.0381600341796875	-0.061601600646972655	-0.05994459915161133	1.0627099609375	-0.06326390075683594	-0.02191510009765625	1.0766199951171875	-0.05649760055541992	-0.030495399475097655	1.051800048828125	-0.040678600311279296	-0.031561100006103515	1.041219970703125	-0.03524150085449219	-0.03814839935302734	1.0169600219726562	-0.08013880157470703	-0.039647998809814455	1.0174099731445312	-0.0480073013305664	-0.015632100105285644	1.0518699951171875	-0.039173500061035156	-0.013225600242614747	1.0428599853515625	-0.031640300750732424	-0.014846699714660645	1.0136199951171876	-0.0796355972290039	-0.014093400001525879	1.0101599731445312	-0.050892101287841794	0.000437278985977172	1.054239990234375	-0.04119839859008789	0.004671130180358887	1.0488199462890626	-0.028246299743652344	0.007994740009307862	1.024280029296875	-0.07361589813232422	0.011198699951171875	1.0123699951171874	-0.05586370086669922	0.01864780044555664	1.0525699462890625	-0.041023200988769534	0.022001699447631837	1.04456005859375	-0.03535179901123047	0.02892580032348633	1.0248299560546874	-0.0713550033569336	0.03488859939575195	1.01822998046875	-0.08744899749755859	0.006281310081481933	1.0943299560546875
24	0.8	-0.05952959823608398	-0.1077239990234375	1.0285999755859374	-0.05457379913330078	-0.08003040313720704	1.03822998046875	-0.06291469955444336	-0.060261299133300784	1.063	-0.0639469985961914	-0.022286699295043944	1.076739990234375	-0.056881500244140626	-0.03114229965209961	1.051800048828125	-0.04133560180664062	-0.032625499725341796	1.04043994140625	-0.03663019943237305	-0.039633899688720706	1.0162899780273438	-0.08141770172119141	-0.04005329895019531	1.0178099975585937	-0.048638099670410155	-0.016393999099731445	1.0514599609375	-0.03951480102539062	-0.014270999908447265	1.0418699951171875	-0.032740001678466794	-0.016225400924682616	1.0124299926757812	-0.08071170043945312	-0.01452690029144287	1.0104000244140625	-0.05140330123901367	-0.000261965006589889	1.0534000244140624	-0.0413745002746582	0.003671519994735717	1.0481099853515625	-0.028818500518798827	0.006690480232238769	1.0228400268554687	-0.07446739959716797	0.010655400276184081	1.0124199829101563	-0.05613420104980469	0.017873500823974608	1.052239990234375	-0.040948501586914064	0.020973600387573243	1.0435699462890624	-0.03570479965209961	0.02777949905395508	1.0235	-0.07187509918212891	0.03438349914550781	1.0180499877929687	-0.0877040023803711	0.006393229961395264	1.0945699462890626
